<?xml version="1.0" encoding="utf-8"?>
<!-- Generator: Adobe Illustrator 23.0.6, SVG Export Plug-In . SVG Version: 6.00 Build 0)  -->
<svg version="1.1" id="Camada_1" xmlns="http://www.w3.org/2000/svg" xmlns:xlink="http://www.w3.org/1999/xlink" x="0px" y="0px"
	 viewBox="0 0 404 511" style="enable-background:new 0 0 404 511;" xml:space="preserve">
<style type="text/css">
	.st0{fill:#FFFFFF;}
</style>
<path class="st0" d="M200.1,151.4c-4.1,0-7.5,3.3-7.5,7.5v22c0,6,4.9,10.9,10.9,10.9h7.2c4.1,0,7.5-3.3,7.5-7.5
	c0-4.1-3.3-7.5-7.5-7.5h-3.2v-17.9C207.5,154.8,204.2,151.4,200.1,151.4z"/>
<path class="st0" d="M165.1,209.7c-3.5,2.2-4.5,6.8-2.3,10.3c7.6,12,22.6,19.5,39.2,19.5c16.6,0,31.6-7.5,39.2-19.5
	c2.2-3.5,1.2-8.1-2.3-10.3c-3.5-2.2-8.1-1.2-10.3,2.3c-4.8,7.6-15.2,12.5-26.5,12.5c-11.3,0-21.7-4.9-26.5-12.5
	C173.3,208.6,168.6,207.5,165.1,209.7z"/>
<path class="st0" d="M244.8,148.5c0,4.1,3.3,7.5,7.5,7.5c4.1,0,7.5-3.3,7.5-7.5v-10c0-4.1-3.3-7.5-7.5-7.5c-4.1,0-7.5,3.4-7.5,7.5
	V148.5z"/>
<path class="st0" d="M151.7,131c-4.1,0-7.5,3.4-7.5,7.5v10c0,4.1,3.3,7.5,7.5,7.5c4.1,0,7.5-3.3,7.5-7.5v-10
	C159.2,134.3,155.8,131,151.7,131z"/>
<path class="st0" d="M240.8,65.9h-77.6c-4.1,0-7.5,3.4-7.5,7.5s3.4,7.5,7.5,7.5h77.6c4.1,0,7.5-3.4,7.5-7.5S244.9,65.9,240.8,65.9z"
	/>
<path class="st0" d="M231.2,100.2c0-4.1-3.3-7.5-7.5-7.5h-43.4c-4.1,0-7.5,3.4-7.5,7.5s3.3,7.5,7.5,7.5h43.4
	C227.8,107.7,231.2,104.3,231.2,100.2z"/>
<path class="st0" d="M364.5,335.2c-8.5-4.3-59.1-24.1-75.9-28.3L265.7,289c-0.1,0-0.1-0.1-0.2-0.1c-4.2-3.1-9.3-4.4-14.2-3.9v-14.2
	c5.2-2.8,10.3-6,15.3-9.6c18.8-13.6,41.1-37.5,41.1-74.3l0-7.9c16.1-1.1,28.8-14.5,28.8-30.8v-11.1c0-10.2-5-19.3-12.7-24.9
	c2.5-2.6,4.7-5.8,6.2-9.9c3.9-10.4,3.3-25.3-1.8-40.8c-5.4-16.4-14.8-30.8-26.7-40.5C265.3-8.8,224,1,215,3.7
	c-4.3-0.5-8.7-0.8-13-0.8c-4.3,0-8.7,0.3-13,0.8C180,1,138.8-8.8,102.3,21c-11.9,9.7-21.3,24.1-26.7,40.5
	c-5.1,15.5-5.7,30.4-1.8,40.8c1.5,4.1,3.7,7.4,6.2,9.9c-7.7,5.6-12.7,14.7-12.7,24.9v11.1c0,16.3,12.7,29.7,28.8,30.8l0,7.9
	c0,36.8,22.4,60.7,41.1,74.3c5,3.6,10.2,6.8,15.3,9.6V285c-4.9-0.5-10,0.8-14.2,3.9c0,0-0.1,0.1-0.1,0.1l-23.3,18
	c-16.6,4.2-67,23.9-75.5,28.2C15.1,347.5,0,372.2,0,399.5v94.1c0,9.6,7.8,17.4,17.4,17.4h369.2c9.6,0,17.4-7.8,17.4-17.4v-94.1
	C404,372.2,388.9,347.5,364.5,335.2z M256.6,300.9l18.4,14.4l-26.4,37.1l-33.9-20.6l35.2-30.6C251.7,299.5,254.5,299.4,256.6,300.9z
	 M239.9,364.6l-38.2,53.8c-0.4,0.6-1.1,0.7-1.5,0.7c-0.4,0-1-0.1-1.4-0.8l-36.1-52.8l39.3-23.9L239.9,364.6z M167.6,293v-15.3
	c13.1,5.1,25.3,7.6,34.2,7.8h0.1h0.1c8.9-0.2,21.2-2.7,34.2-7.8v15.4L202,322.9L167.6,293z M321.7,148.2c0,8.1-6,14.7-13.8,15.8
	l0.1-42.6c7.7,1.1,13.7,7.7,13.7,15.8V148.2z M292.3,32.6C313.6,50,321.4,83.2,316.2,97c-2.1,5.6-6.4,7.8-10,8.7
	c-2.3-8.3-7.1-23.5-16-39.9c-12.3-22.6-28.3-39.8-47-50.9C257.3,15.1,275.4,18.8,292.3,32.6z M82.4,148.2v-11.1
	c0-8,6-14.7,13.7-15.7l0.1,42.6C88.4,163,82.4,156.3,82.4,148.2z M87.8,97c-5.2-13.8,2.5-47,23.9-64.5c16.8-13.8,34.9-17.5,49-17.6
	c-18.7,11.1-34.7,28.3-47,50.9c-8.9,16.4-13.8,31.5-16,39.8C94.3,104.8,89.9,102.6,87.8,97z M111.2,186.9l-0.1-72.4
	c1.8-7.8,19.4-79.2,78.5-95.8c4.1-0.6,8.3-0.9,12.4-0.9c4.1,0,8.3,0.3,12.4,0.9c59,16.5,76.8,87.9,78.5,95.8l-0.1,72.4
	c0,56.6-65.7,83.1-90.8,83.6C176.8,270,111.2,243.5,111.2,186.9z M147.4,300.9c2.1-1.5,4.9-1.4,6.8,0.3l35.2,30.6l-35.1,21.4
	l-25.7-37.7L147.4,300.9z M389,493.6c0,1.3-1.1,2.4-2.4,2.4h-44v-22.9c0-4.1-3.4-7.5-7.5-7.5c-4.1,0-7.5,3.3-7.5,7.5V496H76.4v-96.1
	c0-4.1-3.3-7.5-7.5-7.5c-4.1,0-7.5,3.4-7.5,7.5V496h-44c-1.3,0-2.4-1.1-2.4-2.4v-94.1c0-21.7,12-41.2,31.3-51
	c4.9-2.5,10-4.9,15.1-7.2v23.8c0,4.1,3.3,7.5,7.5,7.5c4.1,0,7.5-3.4,7.5-7.5V335c12.6-5,25.6-9.2,38.8-12.6l71.2,104.4
	c3.1,4.5,8.2,7.2,13.7,7.3c0.1,0,0.1,0,0.2,0c5.4,0,10.5-2.6,13.6-7l74.5-104.8c13.3,3.5,26.5,7.7,39.3,12.7v103.3
	c0,4.1,3.3,7.5,7.5,7.5c4.1,0,7.5-3.4,7.5-7.5v-97c5.1,2.3,10.2,4.7,15.1,7.2c19.3,9.8,31.3,29.4,31.3,51L389,493.6L389,493.6z"/>
</svg>
