<?xml version="1.0" encoding="utf-8"?>
<!-- Generator: Adobe Illustrator 23.0.6, SVG Export Plug-In . SVG Version: 6.00 Build 0)  -->
<svg version="1.1" id="outline" xmlns="http://www.w3.org/2000/svg" xmlns:xlink="http://www.w3.org/1999/xlink" x="0px" y="0px"
	 viewBox="0 0 512 512" style="enable-background:new 0 0 512 512;" xml:space="preserve">
<style type="text/css">
	.st0{fill:#FFFFFF;}
</style>
<path class="st0" d="M56,496h144v-16H56c-13.2,0-24-10.8-24-24V56c0-13.2,10.8-24,24-24h226.7c1.8,0,3.5,0.2,5.3,0.6V88
	c0,22.1,17.9,40,40,40h24v-16h-24c-13.2,0-24-10.8-24-24V43.3l73,73c4.5,4.5,7,10.6,7,17V168h16v-34.7c0-10.6-4.2-20.8-11.7-28.3
	L311,27.7c-7.5-7.5-17.7-11.7-28.3-11.7H56c-22.1,0-40,17.9-40,40v400C16,478.1,33.9,496,56,496z"/>
<path class="st0" d="M272,136v-16H72c-4.4,0-8,3.6-8,8v280c0,4.4,3.6,8,8,8h144v-16h-72v-32h72v-16h-72V232h64v40h16v-40h48v-16h-48
	v-32h48v-16H144v-32H272z M128,400H80v-32h48V400z M128,352H80V232h48V352z M208,184v32h-64v-32H208z M128,216H80v-80h48V216z"/>
<path class="st0" d="M72,80h24v16H72V80z"/>
<path class="st0" d="M112,80h56v16h-56V80z"/>
<path class="st0" d="M72,440h32v16H72V440z"/>
<path class="st0" d="M120,440h32v16h-32V440z"/>
<path class="st0" d="M480,436.7V336c-0.1-42.7-33.6-77.8-76.2-79.9l2.7-6.8c6.3-15.7,9.5-32.4,9.5-49.3c0-4.4-3.6-8-8-8h-96
	c-4.4,0-8,3.6-8,8c0,16.9,3.2,33.6,9.5,49.3l2.7,6.8c-42.6,2.1-76.2,37.2-76.2,79.9v92.7c0,5.1-2,10-5.7,13.7
	c-6.6,6.6-10.4,15.6-10.3,25V488c0,4.4,3.6,8,8,8h256c4.4,0,8-3.6,8-8v-20.7c0-9.4-3.7-18.4-10.3-25L480,436.7z M399.7,208
	c-0.8,12.1-3.5,24-8.1,35.3l-5.1,12.7h-53.2l-5.1-12.7c-4.5-11.3-7.2-23.2-8.1-35.3H399.7z M480,480H240v-12.7c0-5.1,2-10,5.7-13.7
	c6.6-6.6,10.4-15.6,10.3-25V336c0-35.3,28.7-64,64-64h80c35.3,0,64,28.7,64,64v96h-43.5v16h48.2l5.7,5.7c3.6,3.6,5.7,8.5,5.7,13.7
	L480,480z"/>
<path class="st0" d="M368,360h-16c-6.6,0-12-5.4-12-12s5.4-12,12-12h40v-16h-24v-16h-16v16c-15.5,0-28,12.5-28,28s12.5,28,28,28h16
	c6.6,0,12,5.4,12,12s-5.4,12-12,12h-40v16h24v12.7h16V416c15.5,0,28-12.5,28-28S383.5,360,368,360z"/>
</svg>
