<?xml version="1.0" encoding="utf-8"?>
<!-- Generator: Adobe Illustrator 23.0.6, SVG Export Plug-In . SVG Version: 6.00 Build 0)  -->
<svg version="1.1" id="Camada_1" xmlns="http://www.w3.org/2000/svg" xmlns:xlink="http://www.w3.org/1999/xlink" x="0px" y="0px"
	 viewBox="0 0 211 186" style="enable-background:new 0 0 211 186;" xml:space="preserve">
<style type="text/css">
	.st0{fill:#FFFFFF;}
</style>
<g>
	<g>
		<path class="st0" d="M127.3,120.9v-2.7c0.8-0.6,1.5-1.3,2.2-2c5.6-6.1,9.1-13.9,10-22.1c5-0.8,9.5-3.4,12.6-7.5
			c4.2-5.9,4.6-14.5,1.1-25.2c-0.2-0.6-0.6-1.2-1.2-1.5l-1.6-1.1c0.2-9.7-3.1-19.1-9.4-26.5c-7.8-8.8-19.8-13.2-35.7-13.3
			c-15.8,0-27.9,4.5-35.7,13.2c-6.3,7.4-9.6,16.8-9.4,26.5l-1.6,1.1c-0.5,0.4-1,0.9-1.2,1.5c-3.5,10.8-3.1,19.3,1.1,25.2
			c3.1,4.1,7.6,6.8,12.6,7.6c1,8.3,4.5,16,10.1,22.1c0.7,0.7,1.4,1.4,2.2,2v2.7c-11.1,2.1-55.5,12.6-54.7,42.2
			c0,1.6,1.3,2.9,2.9,2.9h147.5c1.6,0,2.9-1.3,2.9-2.9C182.8,133.5,138.4,123.1,127.3,120.9z M69.5,87.7c-2.5-0.8-4.6-2.4-6.2-4.5
			l0.1,0c-2.9-4.2-3.2-10.6-0.6-19.1l2.1-1.4c0.9-0.6,1.4-1.6,1.3-2.7c-0.5-8.7,2.3-17.2,7.9-23.9c6.6-7.4,17.1-11.1,31.2-11.2
			s24.6,3.8,31.3,11.2c5.6,6.7,8.4,15.2,7.9,23.9c-0.1,1.1,0.4,2.1,1.3,2.7l2.1,1.4c2.6,8.4,2.4,14.9-0.6,19.1
			c-1.5,2.1-3.7,3.7-6.2,4.5c3.5-4,5.2-9.2,4.7-14.5c-0.5-3.2-2.2-6.1-4.7-8.1c-1.2-29-21.6-32.3-30.4-32.3c-1.9,0-3.7,0.1-5.5,0.4
			c-1.8-0.3-3.7-0.4-5.5-0.4c-8.7,0-29,3.2-30.4,32.3c-2.5,2.1-4.2,4.9-4.7,8.1C64.3,78.4,66,83.7,69.5,87.7z M135.5,63.9
			c-12.2,0.7-24.3-2.3-34.7-8.7c-1.2-0.8-2.8-0.7-3.8,0.4c-5.8,6.2-16.4,7.7-21.5,8c1.6-20.5,14-25,24.4-25c1.7,0,3.3,0.1,5,0.4
			c0.4,0.1,0.8,0.1,1.2,0c1.6-0.3,3.3-0.4,5-0.4c10.4,0,22.8,4.6,24.3,25.3L135.5,63.9z M76.5,88.2l0.1,0c0-0.7-0.3-1.4-0.7-1.9
			c-4-4.6-5.8-8.7-5.3-12.1c0.2-1.9,1.2-3.7,2.6-4.9c3.8,0,17.4-0.7,26.1-8.2c9.8,5.6,20.9,8.6,32.2,8.7c1.9,0,3.9,0,6-0.3
			c1.4,1.2,2.4,2.9,2.6,4.8c0.5,3.4-1.3,7.6-5.3,12.1c-0.5,0.5-0.7,1.2-0.7,1.9c0,0,0,0.6,0,1.5l-16.9,9.1c-3.4-3.2-8.6-3-11.8,0.3
			c-3.2,3.4-3,8.6,0.3,11.8s8.6,3,11.8-0.3c1.5-1.6,2.3-3.6,2.3-5.7c0-0.3,0-0.5,0-0.8l13.3-7.1c-1.1,5.7-3.8,11-7.8,15.3
			c-5.1,5-12.1,7.6-19.2,7.2h-1.5c-7.1,0.4-14.1-2.2-19.2-7.2C76.3,103.2,76.5,88.4,76.5,88.2z M114.1,104.9c0,1.4-1.2,2.6-2.6,2.6
			c-1.4,0-2.6-1.2-2.6-2.6c0-1.4,1.2-2.6,2.6-2.6S114.1,103.4,114.1,104.9z M102.5,160H34.6c2.3-21.8,37.7-30.9,48.8-33.3v5.2
			c0,6.6,8,11.6,19,12.4V160z M89.2,131.9L89.2,131.9v-10c4.8,2.2,10.1,3.3,15.4,3.2h1.5c5.3,0.1,10.6-1,15.4-3.2v10
			c0,2.8-6.3,6.7-16.1,6.7S89.2,134.7,89.2,131.9z M108.3,160.1v-15.7c11-0.8,19-5.8,19-12.4v-5.1c11.2,2.3,46.4,11.4,48.8,33.3
			L108.3,160.1L108.3,160.1z"/>
	</g>
</g>
</svg>
