<?xml version="1.0" encoding="utf-8"?>
<!-- Generator: Adobe Illustrator 23.0.6, SVG Export Plug-In . SVG Version: 6.00 Build 0)  -->
<svg version="1.1" id="Camada_1" xmlns="http://www.w3.org/2000/svg" xmlns:xlink="http://www.w3.org/1999/xlink" x="0px" y="0px"
	 viewBox="0 0 496 496" style="enable-background:new 0 0 496 496;" xml:space="preserve">
<style type="text/css">
	.st0{fill:#FFFFFF;}
</style>
<path class="st0" d="M360,264h-16c0,8.8-7.2,16-16,16s-16-7.2-16-16h-16c0,17.6,14.4,32,32,32S360,281.6,360,264z"/>
<path class="st0" d="M457.7,365.5L376,338.2v-16.6c17.7-11.6,30.9-29.3,36.7-50.1c19.8-2.4,35.3-19.1,35.3-39.5v-64
	c0-66.2-53.8-120-120-120c-55.6,0-102.3,38-115.9,89.3c-1.4-1.6-2.8-3.3-4.3-4.8l-45.4-45.4l33.1-46.3c2.9-4.1,4.5-8.9,4.5-13.9V24
	c0-13.2-10.8-24-24-24c-10.6,0-16.3,6.5-20,10.7c-3.5,4-4.9,5.3-8,5.3c-3.1,0-4.5-1.3-8-5.3C136.2,6.5,130.6,0,120,0
	c-10.6,0-16.3,6.5-20,10.7c-3.5,4-4.9,5.3-8,5.3c-3.1,0-4.5-1.3-8-5.3C80.3,6.5,74.6,0,64,0C50.8,0,40,10.8,40,24v2.9
	c0,5,1.5,9.9,4.5,13.9l33.1,46.3l-45.4,45.4C11.4,153.3,0,180.8,0,210.2C0,270.7,49.3,320,109.8,320h20.4
	c39.5,0,75.7-21.3,95.2-55.1c5.2,3.6,11.4,5.8,18,6.6c5.8,20.8,19,38.6,36.7,50.1v16.6l-81.7,27.2c-22.9,7.6-38.3,29-38.3,53.1V496
	h336v-77.4C496,394.5,480.6,373.1,457.7,365.5z M415.7,254.6c0.2-2.2,0.3-4.4,0.3-6.6v-38.5c9.3,3.3,16,12.1,16,22.5
	C432,242.5,425.1,251.4,415.7,254.6z M328,64c57.3,0,104,46.7,104,104v32.2c-4.7-3.5-10.1-6.2-16-7.4V176h-24
	c-22.5,0-44.1-10.8-57.6-28.8l-6.4-8.5l-6.4,8.5c-13.5,18-35.1,28.8-57.6,28.8h-24v16.8c-5.9,1.2-11.3,3.9-16,7.4V168
	C224,110.7,270.7,64,328,64z M56,26.9V24c0-4.4,3.6-8,8-8c3.1,0,4.5,1.3,8,5.3C75.7,25.5,81.3,32,92,32s16.3-6.5,20-10.7
	c3.5-4,4.9-5.3,8-5.3c3.1,0,4.5,1.3,8,5.3c3.7,4.3,9.4,10.7,20,10.7c10.6,0,16.3-6.5,20-10.7c3.5-4,4.9-5.3,8-5.3c4.4,0,8,3.6,8,8
	v2.9c0,1.7-0.5,3.3-1.5,4.6L147.9,80H92.1L57.5,31.5C56.5,30.2,56,28.6,56,26.9z M130.2,304h-20.4C58.1,304,16,261.9,16,210.2
	c0-25.1,9.8-48.6,27.5-66.3L91.3,96h57.4l47.8,47.8c4.5,4.5,8.5,9.5,12,14.8c-0.2,3.1-0.5,6.2-0.5,9.3v64c0,7.5,2.2,14.5,5.9,20.5
	C197.9,283.9,165.6,304,130.2,304z M224,232c0-10.4,6.7-19.2,16-22.5V248c0,2.2,0.2,4.4,0.3,6.6C230.9,251.4,224,242.5,224,232z
	 M256,248v-56h8c24.2,0,47.5-10.2,64-27.6c16.5,17.4,39.8,27.6,64,27.6h8v56c0,39.7-32.3,72-72,72S256,287.7,256,248z M328,336
	c11.3,0,22.1-2.2,32-6.1v10.8l-32,32l-32-32v-10.8C305.9,333.8,316.7,336,328,336z M400,448h-16c-19.3,0-35.5,13.8-39.2,32h-33.6
	c-3.7-18.2-19.9-32-39.2-32h-16v-48h144V448z M176,418.6c0-17.2,11-32.5,27.4-37.9l82.5-27.5l30.8,30.8H240v64h-16v-32h-16v48h64
	c10.4,0,19.2,6.7,22.5,16H176V418.6z M480,480H361.5c3.3-9.3,12.1-16,22.5-16h64v-48h-16v32h-16v-64h-76.7l30.8-30.8l82.5,27.5
	c16.4,5.5,27.4,20.7,27.4,37.9V480z"/>
<path class="st0" d="M296,216c0,4.4-3.6,8-8,8s-8-3.6-8-8s3.6-8,8-8S296,211.6,296,216z"/>
<path class="st0" d="M376,216c0,4.4-3.6,8-8,8s-8-3.6-8-8s3.6-8,8-8S376,211.6,376,216z"/>
<path class="st0" d="M66.1,166.5l8.8-8.8l-11.3-11.3l-8.8,8.8c-2.5,2.5-4.8,5.2-7,8l12.7,9.7C62.2,170.6,64.1,168.4,66.1,166.5z"/>
<path class="st0" d="M48,210.2c0-8.1,1.5-15.8,4.5-23.2l-14.8-6c-3.7,9.2-5.6,19.1-5.6,29.2c0,36.9,26.2,69,62.4,76.3l3.2-15.7
	C68.8,265,48,239.5,48,210.2z"/>
<path class="st0" d="M120,160c8.8,0,16,7.2,16,16h16c0-14.9-10.2-27.3-24-30.9V128h-16v17.1c-13.8,3.6-24,16-24,30.9
	c0,17.6,14.4,32,32,32c8.8,0,16,7.2,16,16s-7.2,16-16,16s-16-7.2-16-16H88c0,14.9,10.2,27.3,24,30.9V272h16v-17.1
	c13.8-3.6,24-16,24-30.9c0-17.6-14.4-32-32-32c-8.8,0-16-7.2-16-16S111.2,160,120,160z"/>
</svg>
