<?xml version="1.0" encoding="utf-8"?>
<!-- Generator: Adobe Illustrator 23.0.6, SVG Export Plug-In . SVG Version: 6.00 Build 0)  -->
<svg version="1.1" id="Camada_1" xmlns="http://www.w3.org/2000/svg" xmlns:xlink="http://www.w3.org/1999/xlink" x="0px" y="0px"
	 viewBox="0 0 479 479" style="enable-background:new 0 0 479 479;" xml:space="preserve">
<style type="text/css">
	.st0{fill:#FFFFFF;}
</style>
<path class="st0" d="M15.7,359.2c0,36,14,119.8,143.8,119.8h95.9c129.8,0,143.8-83.8,143.8-119.8c0.4-41.9-5.4-83.5-17.3-123.7
	c0.8-1.2,1.3-2.7,1.3-4.1v-8c0-8.8,7.2-16,16-16s16,7.2,16,16V471c0,4.4,3.6,8,8,8h32c4.4,0,8-3.6,8-8V223.4
	c0-25.3-14.9-48.2-38-58.5c-23.1-10.2-50.1-5.8-68.8,11.3c-14.1-25.1-33.6-46.6-57.1-63.2c2.7-5.4,4.1-11.4,4.2-17.5
	c0-22,17.9-39.9,39.9-39.9h16v-16h-16c-20.9,0-40,11.7-49.6,30.2C287,62,277.5,57.1,267.3,56l18.6-28c2.1-3.2,1.7-7.4-1-10.1
	L274.6,7.7c-10.8-10.3-27.8-10.3-38.6,0l-4.7,4.7l-4.7-4.7c-10.8-10.3-27.8-10.3-38.6,0l-4.7,4.7l-4.7-4.7
	C168-2.6,151-2.6,140.2,7.7L129.9,18c-2.7,2.7-3.1,6.9-1,10.1l18.6,28c-10.2,1-19.6,6-26.3,13.8c-9.6-18.5-28.7-30.2-49.6-30.2h-16
	v16h16c22,0,39.9,17.9,39.9,39.9c0,6.1,1.5,12,4.2,17.5C53,155.9,15.7,247,15.7,359.2z M399.1,175.5c26.5,0,47.9,21.5,47.9,47.9V463
	h-16V223.4c0-17.6-14.3-32-32-32s-32,14.3-32,32h-16C351.2,196.9,372.7,175.5,399.1,175.5z M287.3,95.6c0,13.2-10.7,24-24,24
	s-24-10.7-24-24s10.7-24,24-24S287.3,82.3,287.3,95.6z M145.8,24.7l5.7-5.7c4.5-4.3,11.5-4.3,16,0l10.3,10.3c3.1,3.1,8.2,3.1,11.3,0
	L199.4,19c4.5-4.3,11.5-4.3,16,0l10.3,10.3c3.1,3.1,8.2,3.1,11.3,0L247.4,19c4.5-4.3,11.5-4.3,16,0l5.7,5.7l-23.6,35.4
	c-6.1,3-11.4,7.6-15.2,13.2c-6-6.2-14.2-9.6-22.8-9.6s-16.8,3.5-22.8,9.6c-3.9-5.6-9.1-10.2-15.3-13.2L145.8,24.7z M151.5,71.6
	c13.2,0,24,10.7,24,24s-10.7,24-24,24s-24-10.7-24-24S138.3,71.6,151.5,71.6z M125.5,125.7c11.8,10.3,28.5,12.7,42.7,6.3
	c14.2-6.5,23.3-20.7,23.2-36.4c0-8.8,7.2-16,16-16s16,7.2,16,16c0,22,17.9,39.9,39.9,39.9c9.6,0,18.8-3.5,25.9-9.8
	c23.5,16.4,42.6,38.2,55.9,63.5c-6.5,10.2-10,22.1-10,34.2v8c0,4.4,3.6,8,8,8h23.1c11.6,38.9,17.3,79.3,16.8,119.8
	c0,38.8-16.6,103.8-127.8,103.8h-95.9C48.3,463,31.7,398,31.7,359.2C31.7,251.8,66.7,165.3,125.5,125.7z"/>
<path class="st0" d="M207.4,367.2c-13.2,0-24-10.7-24-24c0-4.4-3.6-8-8-8h-32c-4.4,0-8,3.6-8,8c0,30.4,19.2,57.5,47.9,67.7v28.2
	c0,4.4,3.6,8,8,8h32c4.4,0,8-3.6,8-8v-28.1c33-11.7,52.8-45.4,46.9-79.9c-5.9-34.5-35.8-59.7-70.8-59.7c-13.2,0-24-10.7-24-24
	s10.7-24,24-24s24,10.7,24,24c0,4.4,3.6,8,8,8h32c4.4,0,8-3.6,8-8c0-30.5-19.2-57.6-47.9-67.7v-28.1c0-4.4-3.6-8-8-8h-32
	c-4.4,0-8,3.6-8,8v28.1c-33,11.7-52.8,45.4-46.9,79.9c5.9,34.5,35.8,59.7,70.8,59.7c13.2,0,24,10.7,24,24S220.6,367.2,207.4,367.2z
	 M207.4,303.3c-28.2,0-51.9-20.9-55.5-48.8c-3.5-27.9,14.2-54.1,41.5-61.2c3.5-0.9,6-4.1,6-7.7v-26.1h16v26c0,3.6,2.5,6.8,6,7.7
	c21.8,5.6,38.2,23.8,41.4,46.1h-16.2c-4.2-20.6-23.6-34.4-44.5-31.6s-35.9,21.3-34.5,42.3c1.4,21,18.8,37.3,39.8,37.3
	c28.1,0,51.9,20.9,55.5,48.8c3.5,27.9-14.2,54.1-41.5,61.2c-3.5,0.9-6,4.1-6,7.7v26.1h-16V405c0-3.6-2.5-6.8-6-7.7
	c-21.8-5.6-38.1-23.8-41.4-46.1h16.2c4.2,20.6,23.6,34.4,44.5,31.6c20.8-2.8,35.9-21.3,34.5-42.3
	C245.8,319.6,228.4,303.3,207.4,303.3z"/>
</svg>
