<?xml version="1.0" encoding="utf-8"?>
<!-- Generator: Adobe Illustrator 23.0.6, SVG Export Plug-In . SVG Version: 6.00 Build 0)  -->
<svg version="1.1" id="Camada_1" xmlns="http://www.w3.org/2000/svg" xmlns:xlink="http://www.w3.org/1999/xlink" x="0px" y="0px"
	 viewBox="0 0 211 186" style="enable-background:new 0 0 211 186;" xml:space="preserve">
<style type="text/css">
	.st0{opacity:0.8;fill:#CA9832;}
	.st1{fill:#CA9832;}
</style>
<path class="st0" d="M-147.1,150.8h-5.1l-7.5,4c-0.8-0.5-1.7-0.9-2.7-1.1l-9.5-2.4v-1.1c4.2-2.9,6.8-7.8,6.8-12.9v-3.9
	c0-8.7-6.9-16.1-15.3-16.3c-0.4,0-0.8,0-1.3,0l2.5-5.8l-11.9-11.9l-7,4.6c-2.7-1.5-5.5-2.7-8.4-3.5l-1.7-8.2h-17.2l-1.7,8.2
	c-2.9,0.8-5.8,2-8.4,3.5l-7-4.6l-11.9,11.9l2.4,5.8c-0.1,0-0.2,0-0.3,0c-4.3-0.1-8.4,1.4-11.5,4.4c-3.1,3-4.8,7-4.8,11.3v4.5
	c0,5.2,2.6,10,6.8,12.9v1.1l-6.2,1.5l-11.2-6.5h-7.4V193l22.2,7.4h4.3l0.5-1.9l6.8,4.1c0.1,3.7,3.1,6.7,6.8,6.8
	c0.1,3.7,3.1,6.6,6.8,6.8c0.1,3.7,3.1,6.6,6.8,6.8c0.1,3.8,3.2,6.8,7,6.8c1.4,0,2.8-0.4,3.9-1.2l2,1.8c1.3,1.1,2.9,1.7,4.5,1.7h0.4
	c3.7,0,6.8-3,6.8-6.8c3.7,0,6.7-3,6.8-6.8c3.7,0,6.7-3.1,6.8-6.8c3.7-0.1,6.8-3.1,6.8-6.9c0-0.2,0-0.4,0-0.7l40.6-20.3V150.8z
	 M-169.6,133.4v3.9c0,4-2.2,7.7-5.6,9.7l-1.1,0.7l0,7.1l11.3,2.8l-24.8,13v-6.1c0-3-1.2-5.8-3.2-7.8l7.7-1.9v-7.1l-1.1-0.6
	c-3.5-2-5.6-5.7-5.6-9.7v-4.5c0-3.1,1.2-5.9,3.4-8.1c2.2-2.1,5.1-3.3,8.2-3.2C-174.5,121.7-169.6,127-169.6,133.4z M-213.5,168.9
	l-10.2-3.3c-4.6-1.5-9.7-1.7-14.4-0.7l-1.3,0.3v-0.7c0-3.1,2.1-5.8,5.1-6.6l12.9-3.2v-7.1l-1.1-0.6c-3.5-2-5.6-5.7-5.6-9.7v-4.5
	c0-3.1,1.2-5.9,3.4-8.1c2.2-2.1,5.1-3.3,8.2-3.2c6,0.2,10.9,5.5,10.9,11.8v3.9c0,4-2.2,7.7-5.6,9.7l-1.1,0.7l0,7.1l12.9,3.2
	c3,0.8,5.1,3.5,5.1,6.6v8.4l-0.6,0.3h-1.4l-13.8-4C-211.3,169.1-212.4,168.9-213.5,168.9z M-238.9,126c4.2-8.2,12.7-13.4,22-13.4
	c9.2,0,17.7,5.2,21.9,13.3c-1.1,2.1-1.7,4.5-1.7,7v4.5c0,5.2,2.6,10,6.8,12.9v1.1l-9,2.3l-9-2.3v-1.1c4.2-2.9,6.8-7.8,6.8-12.9v-3.9
	c0-8.7-6.9-16.1-15.3-16.3c-4.3-0.1-8.4,1.4-11.5,4.4c-3.1,3-4.8,7-4.8,11.3v4.5c0,5.2,2.6,10,6.8,12.9v1.1l-9,2.3l-9-2.3v-1.1
	c4.2-2.9,6.8-7.8,6.8-12.9v-3.9C-237.2,130.7-237.8,128.2-238.9,126z M-249.3,112.4l7.2-7.2l6.3,4.1l1.2-0.7c3-1.9,6.3-3.2,9.8-4
	l1.4-0.3l1.6-7.4h9.9l1.6,7.4l1.4,0.3c3.4,0.8,6.7,2.2,9.8,4l1.2,0.7l6.3-4.1l7.2,7.2l-2.6,6c-1.7,0.7-3.4,1.8-4.8,3.2
	c-0.1,0.1-0.2,0.2-0.3,0.3c-5.3-8.4-14.7-13.7-24.8-13.7c-10.2,0-19.6,5.3-24.9,13.9c-1.4-1.5-3.1-2.7-5-3.5L-249.3,112.4z
	 M-257.5,154.8v-7.1l-1.1-0.6c-3.5-2-5.6-5.7-5.6-9.7v-4.5c0-3.1,1.2-5.9,3.4-8.1c2.2-2.1,5.1-3.3,8.2-3.2c6,0.2,10.9,5.5,10.9,11.8
	v3.9c0,4-2.2,7.7-5.6,9.7l-1.1,0.7l0,7.1l7.7,1.9c-2,2-3.2,4.8-3.2,7.8v1.7l-7,1.6l0.2-0.6l0.1-4.2l-11.9-6.9L-257.5,154.8z
	 M-282.2,150.8h1.6l16.2,9.4l-8.2,32.7l-9.7-3.2V150.8z M-263.8,195.9l-4.4-1.5l7.9-31.8l5.1,3v0.6l-8.5,29.6H-263.8z M-248.4,202.3
	c0-0.7,0.3-1.3,0.7-1.8l4-4c0.5-0.5,1.1-0.7,1.8-0.7c1.4,0,2.5,1.1,2.5,2.5c0,0.7-0.3,1.3-0.7,1.8l-4,4c-0.5,0.5-1.1,0.7-1.8,0.7
	C-247.3,204.9-248.4,203.7-248.4,202.3z M-241.7,209.1c0-0.7,0.3-1.3,0.7-1.8l4-4c0.5-0.5,1.1-0.7,1.8-0.7c1.4,0,2.5,1.1,2.5,2.5
	c0,0.7-0.3,1.3-0.7,1.8l-4,4c-0.5,0.5-1.1,0.7-1.8,0.7C-240.6,211.6-241.7,210.5-241.7,209.1z M-234.9,215.9c0-0.7,0.3-1.3,0.7-1.8
	l4-4c0.5-0.5,1.1-0.7,1.8-0.7c1.4,0,2.5,1.1,2.5,2.5c0,0.7-0.3,1.3-0.7,1.8l-4,4c-0.5,0.5-1.1,0.7-1.8,0.7
	C-233.8,218.4-234.9,217.2-234.9,215.9z M-225.7,225.1c-1.4,0-2.5-1.1-2.5-2.5c0-0.7,0.3-1.3,0.7-1.8l4-4c0.5-0.5,1.1-0.7,1.8-0.7
	c1.4,0,2.5,1.1,2.5,2.5c0,0.7-0.3,1.3-0.7,1.8l-4,4C-224.3,224.9-225,225.1-225.7,225.1z M-214.8,227.4h-0.4c-0.6,0-1.1-0.2-1.6-0.6
	l-1.7-1.5l1.7-1.7c0.6-0.6,1.1-1.3,1.4-2.1l2,1.7c0.5,0.4,0.8,1.1,0.8,1.8C-212.4,226.3-213.5,227.4-214.8,227.4z M-194.6,207.1
	h-0.4c-0.6,0-1.1-0.2-1.5-0.6l-12.2-10.2l-2.9,3.5l11.9,9.9c0.5,0.4,0.8,1.1,0.8,1.8c0,1.3-1.1,2.3-2.3,2.3h-0.5
	c-0.5,0-1.1-0.2-1.5-0.5l-12.2-10.2l-2.9,3.5l11.9,9.9c0.5,0.4,0.8,1.1,0.8,1.8c0,1.3-1.1,2.3-2.3,2.3c-0.9,0-1.7-0.3-2.4-0.9
	l-5-4.2c-1.1-2.3-3.4-3.8-6-3.9c-0.1-3.7-3.1-6.6-6.8-6.8c-0.1-3.7-3.1-6.6-6.8-6.8c-0.1-3.8-3.2-6.8-7-6.8c-1.9,0-3.7,0.7-5,2.1
	l-4,4c-0.2,0.2-0.4,0.5-0.6,0.8l-6.9-4.2l6.1-21.2l15.2-3.4c4-0.9,8.2-0.7,12.1,0.5l3.3,1.1l-11.2,5.6c-2.6,1.3-4.2,3.9-4.2,6.7v0.4
	c0,4.2,3.4,7.5,7.5,7.5c1.4,0,2.7-0.4,3.9-1.1l8.4-5c1.7-1,3.9-0.8,5.4,0.5l19,17.1c0.5,0.5,0.8,1.1,0.8,1.8
	C-192.1,206-193.2,207.1-194.6,207.1z M-151.6,181l-37.9,19c-0.1-0.1-0.3-0.3-0.4-0.4l-19-17.1c-1.7-1.5-3.8-2.3-6.1-2.3
	c-1.6,0-3.3,0.4-4.7,1.3l-8.4,5c-0.5,0.3-1,0.4-1.6,0.4c-1.7,0-3-1.4-3-3v-0.4c0-1.2,0.6-2.2,1.7-2.7l12.6-6.3
	c2.1-1.1,4.7-1.3,7-0.7l14.2,4l3.4,0.1l42.2-22.2V181z"/>
<g>
	<g>
		<g>
			<path class="st1" d="M173.1,92h-2.6V37.3c0-7.2-5.8-13-13-13H48c-7.2,0-13,5.8-13,13v39.1h-2.6c-4.3,0-7.8,3.5-7.8,7.8v67.7
				c0,4.3,3.5,7.8,7.8,7.8h99c1.4,0,2.6-1.2,2.6-2.6c0-7.2-5.8-13-13-13h-7.8v-15.6h31.3v23.5c0,4.3,3.5,7.8,7.8,7.8h20.8
				c4.3,0,7.8-3.5,7.8-7.8V99.8C180.9,95.5,177.4,92,173.1,92z M81.9,151.9c0,1.4-1.2,2.6-2.6,2.6H32.4c-1.4,0-2.6-1.2-2.6-2.6v-2.6
				h52.1V151.9z M81.9,144.1H29.7V84.2c0-1.4,1.2-2.6,2.6-2.6h46.9c1.4,0,2.6,1.2,2.6,2.6V144.1z M120.9,149.3
				c3.3,0,6.3,2.1,7.4,5.2H86.6c0.3-0.8,0.5-1.7,0.5-2.6v-2.6H120.9z M87.1,144.1v-15.6h5.2v15.6H87.1z M97.5,144.1v-15.6h10.4v15.6
				H97.5z M144.4,123.3H87.1v-15.6h57.3V123.3z M144.4,99.8v2.6H87.1V84.2c0-1.2-0.3-2.5-0.9-3.5c0,0,0.1,0,0.1-0.1l25.8-25.8
				c1-1,1-2.7-0.1-3.7c-1-1-2.6-1-3.6,0L82.6,76.9c-0.1,0.1-0.1,0.1-0.1,0.2c-1-0.5-2.1-0.7-3.2-0.7H40.2V37.3
				c0-4.3,3.5-7.8,7.8-7.8h109.4c4.3,0,7.8,3.5,7.8,7.8V92h-13C147.9,92,144.4,95.5,144.4,99.8z M175.7,151.9c0,1.4-1.2,2.6-2.6,2.6
				h-20.8c-1.4,0-2.6-1.2-2.6-2.6v-2.6h26.1V151.9z M175.7,144.1h-26.1V99.8c0-1.4,1.2-2.6,2.6-2.6h20.8c1.4,0,2.6,1.2,2.6,2.6
				V144.1z"/>
		</g>
	</g>
	<g>
		<g>
			<path class="st1" d="M55.7,108.1c-1-1-2.7-1-3.7,0l-11.1,11.1c-1,1-1.1,2.6-0.1,3.7s2.6,1.1,3.7,0.1c0,0,0,0,0.1-0.1l11.1-11.1
				C56.1,111,55.2,109.4,55.7,108.1z"/>
		</g>
	</g>
	<g>
		<g>
			<path class="st1" d="M71.2,108.1c-1-1-2.6-1-3.6,0l-11.1,11.1c-1,1-1.1,2.6-0.1,3.7c1,1,2.6,1.1,3.7,0.1c0,0,0,0,0.1-0.1
				l11.1-11.1C72.3,110.7,72.3,109.1,71.2,108.1z"/>
		</g>
	</g>
	<g>
		<g>
			<path class="st1" d="M127.9,51.1c-1-1-2.6-1-3.6,0L98.5,76.9c-1,1-1.1,2.6-0.1,3.7c1,1,2.6,1.1,3.7,0.1c0,0,0,0,0.1-0.1L128,54.8
				C129,53.7,129,52.1,127.9,51.1z"/>
		</g>
	</g>
	<g>
		<g>
			<path class="st1" d="M168.1,115.1c-1-1-2.6-1-3.6,0l-7.4,7.4c-1,1-1.1,2.6-0.1,3.7s2.6,1.1,3.7,0.1c0,0,0,0,0.1-0.1l7.4-7.4
				C169.2,117.8,169.1,116.1,168.1,115.1z"/>
		</g>
	</g>
	<g>
		<g>
			<path class="st1" d="M102.8,112.8L102.8,112.8c-1.5,0-2.6,1.2-2.6,2.6c0,1.4,1.2,2.6,2.6,2.6c1.4,0,2.6-1.2,2.6-2.6
				S104.2,112.8,102.8,112.8z"/>
		</g>
	</g>
	<g>
		<g>
			<path class="st1" d="M107.9,34.7H97.5c-1.4,0-2.6,1.2-2.6,2.6s1.2,2.6,2.6,2.6h10.4c1.4,0,2.6-1.2,2.6-2.6S109.4,34.7,107.9,34.7
				z"/>
		</g>
	</g>
</g>
<path class="st0" d="M762.9,151.6c-1.4-2.1-3.5-3.6-6-4.1c1.6-3,1.5-6.8-0.5-9.9c-1.4-2.2-3.6-3.6-6-4.1c0.4-0.8,0.7-1.7,0.9-2.6
	c0.5-2.5,0-5.1-1.4-7.3c-1.4-2.1-3.5-3.6-6-4.1c1.6-3,1.5-6.8-0.5-9.9c-3-4.5-9-5.7-13.4-2.7l-9.6,6.4c-5.1-2.6-10.6-4.5-16.3-5.5
	c-1.8-2.7-3.9-5.3-6.2-7.5l-4-3.9c-2.9-2.8-7.5-3.3-10.9-1c-4,2.7-5.1,8.1-2.5,12.1c0.1,0.2,0.2,0.3,0.3,0.5
	c-13.1,2.6-25,9.6-33.8,19.8c-9.6,11-14.9,25.2-14.9,39.8c0,2.8,0.2,5.6,0.6,8.4c2.9,21.3,17.1,39.6,37,47.8
	c7.4,3.1,15.2,4.6,23.2,4.6c12.8,0,25-3.9,35.3-11.3c10.1-7.2,17.7-17.2,21.9-28.9c0.4-1.1-0.2-2.3-1.3-2.7
	c-1.1-0.4-2.3,0.2-2.7,1.3c-3.9,10.8-11,20.1-20.4,26.9c-9.6,6.9-21,10.5-32.9,10.5c-6.1,0-12.1-1-17.9-2.9l17-11.3c0,0,0,0,0,0
	c0,0,0,0,0,0l14.1-9.4h0c1.3-0.8,2.1-2.1,2.4-3.6s0-3-0.8-4.3l-0.2-0.3l2.7-1.8c2-1.3,4.3-1.8,6.6-1.4c3.4,0.5,6.8-0.2,9.6-2.1
	l22.8-15.1c-0.2,2-0.4,3.9-0.8,5.9c-0.2,1.1,0.5,2.2,1.7,2.4c0.1,0,0.3,0,0.4,0c1,0,1.9-0.7,2.1-1.7c0.6-3.1,0.9-6.3,1-9.5l6.4-4.2
	c2.2-1.4,3.6-3.6,4.1-6.2C764.8,156.4,764.3,153.8,762.9,151.6z M716.4,116.1l-6.4,4.2l-1.3-3.4c-0.5-1.4-1.1-2.8-1.8-4.2
	C710.2,113.6,713.3,114.7,716.4,116.1z M650.2,130.6c8.5-9.8,20-16.4,32.7-18.6c2,4.9,2.5,10.4,1.3,15.6l-5.1,22
	c-0.8-0.9-1.8-1.4-3-1.7c-1.5-0.3-3,0-4.3,0.8l-14.4,9.6c0,0,0,0,0,0c0,0,0,0,0,0l-20.8,13.8c-0.1-1.5-0.2-2.9-0.2-4.4
	C636.3,154,641.3,140.9,650.2,130.6z M704.6,196.3c-0.1,0.4-0.3,0.7-0.7,1h0l-12.4,8.2l-23-34.4c-0.6-1-1.9-1.2-2.9-0.6
	c-1,0.6-1.2,1.9-0.6,2.9l23,34.3l-17.7,11.7c-17.6-7.7-30.2-24-33.2-42.9l20.8-13.8l2.4,3.6c0.4,0.6,1.1,0.9,1.7,0.9
	c0.4,0,0.8-0.1,1.2-0.4c1-0.6,1.2-1.9,0.6-2.9l-2.4-3.6l12.7-8.4c0.3-0.2,0.7-0.3,1.1-0.2s0.7,0.3,1,0.7l28.2,42.5
	C704.6,195.5,704.7,195.9,704.6,196.3z M760.2,158.1c-0.3,1.4-1.1,2.7-2.4,3.5l-7.3,4.9c0,0,0,0,0,0l-26.2,17.3
	c-2,1.3-4.3,1.8-6.6,1.4c-3.4-0.5-6.8,0.2-9.6,2.1l-2.7,1.8l-23.1-34.8l6-25.8c1.5-6.6,0.7-13.6-2.2-19.7c0-0.1-0.1-0.1-0.1-0.2
	c-0.6-1.2-1.2-2.3-1.9-3.3c-1.4-2.1-0.8-4.9,1.3-6.3c1.8-1.2,4.2-1,5.7,0.5l4,3.9c4.3,4.2,7.7,9.4,9.8,15l2.2,5.9c0,0,0,0,0,0
	c0,0,0,0,0,0c0,0,0,0.1,0,0.1c0,0.1,0.1,0.2,0.1,0.3c0.6,1,1.9,1.2,2.9,0.6l22.3-14.8c2.5-1.7,6-1,7.6,1.6c1.7,2.5,1,6-1.6,7.6
	l-1.9,1.3c0,0,0,0,0,0l-4.3,2.9c0,0,0,0,0,0c0,0,0,0-0.1,0.1c-0.9,0.7-1.1,1.9-0.5,2.8c0.6,1,1.9,1.2,2.9,0.6l4.3-2.9
	c1.2-0.8,2.7-1.1,4.1-0.8s2.7,1.1,3.5,2.4c0.8,1.2,1.1,2.7,0.8,4.1c-0.3,1.4-1.1,2.7-2.4,3.5l-6.3,4.1c-1,0.6-1.2,1.9-0.6,2.9
	c0.4,0.6,1.1,0.9,1.7,0.9c0.4,0,0.8-0.1,1.2-0.3l1-0.6l3.3-2.2c2.5-1.7,6-1,7.6,1.6c1.7,2.5,1,6-1.6,7.6l-3.1,2.1c0,0,0,0,0,0
	l-3.1,2c-1,0.6-1.2,1.9-0.6,2.9c0.4,0.6,1.1,0.9,1.7,0.9c0.4,0,0.8-0.1,1.2-0.3l1-0.6c0,0,0,0,0,0l3.3-2.2c1.2-0.8,2.7-1.1,4.1-0.8
	c1.4,0.3,2.7,1.1,3.5,2.4C760.2,155.2,760.5,156.7,760.2,158.1z"/>
</svg>
