<?xml version="1.0" encoding="utf-8"?>
<!-- Generator: Adobe Illustrator 23.0.6, SVG Export Plug-In . SVG Version: 6.00 Build 0)  -->
<svg version="1.1" id="Camada_1" xmlns="http://www.w3.org/2000/svg" xmlns:xlink="http://www.w3.org/1999/xlink" x="0px" y="0px"
	 viewBox="0 0 211 186" style="enable-background:new 0 0 211 186;" xml:space="preserve">
<style type="text/css">
	.st0{fill:#CA9832;}
</style>
<path class="st0" d="M174.9,80.8h-5.1l-7.5,4c-0.8-0.5-1.7-0.9-2.7-1.1l-9.5-2.4v-1.1c4.2-2.9,6.8-7.8,6.8-12.9v-3.9
	c0-8.7-6.9-16.1-15.3-16.3c-0.4,0-0.8,0-1.3,0l2.5-5.8l-11.9-11.9l-7,4.6c-2.7-1.5-5.5-2.7-8.4-3.5l-1.7-8.2H96.5l-1.7,8.2
	c-2.9,0.8-5.8,2-8.4,3.5l-7-4.6L67.4,41.3l2.4,5.8c-0.1,0-0.2,0-0.3,0c-4.3-0.1-8.4,1.4-11.5,4.4c-3.1,3-4.8,7-4.8,11.3v4.5
	c0,5.2,2.6,10,6.8,12.9v1.1l-6.2,1.5l-11.2-6.5h-7.4V123l22.2,7.4h4.3l0.5-1.9l6.8,4.1c0.1,3.7,3.1,6.7,6.8,6.8
	c0.1,3.7,3.1,6.6,6.8,6.8c0.1,3.7,3.1,6.6,6.8,6.8c0.1,3.8,3.2,6.8,7,6.8c1.4,0,2.8-0.4,3.9-1.2l2,1.8c1.3,1.1,2.9,1.7,4.5,1.7h0.4
	c3.7,0,6.8-3,6.8-6.8c3.7,0,6.7-3,6.8-6.8c3.7,0,6.7-3.1,6.8-6.8c3.7-0.1,6.8-3.1,6.8-6.9c0-0.2,0-0.4,0-0.7l40.6-20.3V80.8z
	 M152.4,63.4v3.9c0,4-2.2,7.7-5.6,9.7l-1.1,0.7l0,7.1l11.3,2.8l-24.8,13v-6.1c0-3-1.2-5.8-3.2-7.8l7.7-1.9v-7.1l-1.1-0.6
	c-3.5-2-5.6-5.7-5.6-9.7v-4.5c0-3.1,1.2-5.9,3.4-8.1c2.2-2.1,5.1-3.3,8.2-3.2C147.5,51.7,152.4,57,152.4,63.4z M108.5,98.9
	l-10.2-3.3c-4.6-1.5-9.7-1.7-14.4-0.7l-1.3,0.3v-0.7c0-3.1,2.1-5.8,5.1-6.6l12.9-3.2v-7.1L99.5,77c-3.5-2-5.6-5.7-5.6-9.7v-4.5
	c0-3.1,1.2-5.9,3.4-8.1c2.2-2.1,5.1-3.3,8.2-3.2c6,0.2,10.9,5.5,10.9,11.8v3.9c0,4-2.2,7.7-5.6,9.7l-1.1,0.7l0,7.1l12.9,3.2
	c3,0.8,5.1,3.5,5.1,6.6v8.4l-0.6,0.3h-1.4l-13.8-4C110.7,99.1,109.6,98.9,108.5,98.9z M83.1,56c4.2-8.2,12.7-13.4,22-13.4
	c9.2,0,17.7,5.2,21.9,13.3c-1.1,2.1-1.7,4.5-1.7,7v4.5c0,5.2,2.6,10,6.8,12.9v1.1l-9,2.3l-9-2.3v-1.1c4.2-2.9,6.8-7.8,6.8-12.9v-3.9
	c0-8.7-6.9-16.1-15.3-16.3c-4.3-0.1-8.4,1.4-11.5,4.4c-3.1,3-4.8,7-4.8,11.3v4.5c0,5.2,2.6,10,6.8,12.9v1.1l-9,2.3l-9-2.3v-1.1
	c4.2-2.9,6.8-7.8,6.8-12.9v-3.9C84.8,60.7,84.2,58.2,83.1,56z M72.7,42.4l7.2-7.2l6.3,4.1l1.2-0.7c3-1.9,6.3-3.2,9.8-4l1.4-0.3
	l1.6-7.4h9.9l1.6,7.4l1.4,0.3c3.4,0.8,6.7,2.2,9.8,4l1.2,0.7l6.3-4.1l7.2,7.2l-2.6,6c-1.7,0.7-3.4,1.8-4.8,3.2
	c-0.1,0.1-0.2,0.2-0.3,0.3c-5.3-8.4-14.7-13.7-24.8-13.7c-10.2,0-19.6,5.3-24.9,13.9c-1.4-1.5-3.1-2.7-5-3.5L72.7,42.4z M64.5,84.8
	v-7.1L63.4,77c-3.5-2-5.6-5.7-5.6-9.7v-4.5c0-3.1,1.2-5.9,3.4-8.1c2.2-2.1,5.1-3.3,8.2-3.2c6,0.2,10.9,5.5,10.9,11.8v3.9
	c0,4-2.2,7.7-5.6,9.7l-1.1,0.7l0,7.1l7.7,1.9c-2,2-3.2,4.8-3.2,7.8v1.7l-7,1.6l0.2-0.6l0.1-4.2l-11.9-6.9L64.5,84.8z M39.8,80.8h1.6
	l16.2,9.4L49.4,123l-9.7-3.2V80.8z M58.2,125.9l-4.4-1.5l7.9-31.8l5.1,3v0.6l-8.5,29.6H58.2z M73.6,132.3c0-0.7,0.3-1.3,0.7-1.8l4-4
	c0.5-0.5,1.1-0.7,1.8-0.7c1.4,0,2.5,1.1,2.5,2.5c0,0.7-0.3,1.3-0.7,1.8l-4,4c-0.5,0.5-1.1,0.7-1.8,0.7
	C74.7,134.9,73.6,133.7,73.6,132.3z M80.3,139.1c0-0.7,0.3-1.3,0.7-1.8l4-4c0.5-0.5,1.1-0.7,1.8-0.7c1.4,0,2.5,1.1,2.5,2.5
	c0,0.7-0.3,1.3-0.7,1.8l-4,4c-0.5,0.5-1.1,0.7-1.8,0.7C81.4,141.6,80.3,140.5,80.3,139.1z M87.1,145.9c0-0.7,0.3-1.3,0.7-1.8l4-4
	c0.5-0.5,1.1-0.7,1.8-0.7c1.4,0,2.5,1.1,2.5,2.5c0,0.7-0.3,1.3-0.7,1.8l-4,4c-0.5,0.5-1.1,0.7-1.8,0.7
	C88.2,148.4,87.1,147.2,87.1,145.9z M96.3,155.1c-1.4,0-2.5-1.1-2.5-2.5c0-0.7,0.3-1.3,0.7-1.8l4-4c0.5-0.5,1.1-0.7,1.8-0.7
	c1.4,0,2.5,1.1,2.5,2.5c0,0.7-0.3,1.3-0.7,1.8l-4,4C97.7,154.9,97,155.1,96.3,155.1z M107.2,157.4h-0.4c-0.6,0-1.1-0.2-1.6-0.6
	l-1.7-1.5l1.7-1.7c0.6-0.6,1.1-1.3,1.4-2.1l2,1.7c0.5,0.4,0.8,1.1,0.8,1.8C109.6,156.3,108.5,157.4,107.2,157.4z M127.4,137.1H127
	c-0.6,0-1.1-0.2-1.5-0.6l-12.2-10.2l-2.9,3.5l11.9,9.9c0.5,0.4,0.8,1.1,0.8,1.8c0,1.3-1.1,2.3-2.3,2.3h-0.5c-0.5,0-1.1-0.2-1.5-0.5
	l-12.2-10.2l-2.9,3.5l11.9,9.9c0.5,0.4,0.8,1.1,0.8,1.8c0,1.3-1.1,2.3-2.3,2.3c-0.9,0-1.7-0.3-2.4-0.9l-5-4.2
	c-1.1-2.3-3.4-3.8-6-3.9c-0.1-3.7-3.1-6.6-6.8-6.8c-0.1-3.7-3.1-6.6-6.8-6.8c-0.1-3.8-3.2-6.8-7-6.8c-1.9,0-3.7,0.7-5,2.1l-4,4
	c-0.2,0.2-0.4,0.5-0.6,0.8l-6.9-4.2l6.1-21.2l15.2-3.4c4-0.9,8.2-0.7,12.1,0.5l3.3,1.1L89,106.6c-2.6,1.3-4.2,3.9-4.2,6.7v0.4
	c0,4.2,3.4,7.5,7.5,7.5c1.4,0,2.7-0.4,3.9-1.1l8.4-5c1.7-1,3.9-0.8,5.4,0.5l19,17.1c0.5,0.5,0.8,1.1,0.8,1.8
	C129.9,136,128.8,137.1,127.4,137.1z M170.4,111l-37.9,19c-0.1-0.1-0.3-0.3-0.4-0.4l-19-17.1c-1.7-1.5-3.8-2.3-6.1-2.3
	c-1.6,0-3.3,0.4-4.7,1.3l-8.4,5c-0.5,0.3-1,0.4-1.6,0.4c-1.7,0-3-1.4-3-3v-0.4c0-1.2,0.6-2.2,1.7-2.7l12.6-6.3
	c2.1-1.1,4.7-1.3,7-0.7l14.2,4l3.4,0.1l42.2-22.2V111z"/>
<g>
	<g>
		<g>
			<path class="st0" d="M416.1,352h-2.6v-54.7c0-7.2-5.8-13-13-13H291c-7.2,0-13,5.8-13,13v39.1h-2.6c-4.3,0-7.8,3.5-7.8,7.8v67.7
				c0,4.3,3.5,7.8,7.8,7.8h99c1.4,0,2.6-1.2,2.6-2.6c0-7.2-5.8-13-13-13h-7.8v-15.6h31.3v23.5c0,4.3,3.5,7.8,7.8,7.8h20.8
				c4.3,0,7.8-3.5,7.8-7.8v-52.1C423.9,355.5,420.4,352,416.1,352z M324.9,411.9c0,1.4-1.2,2.6-2.6,2.6h-46.9
				c-1.4,0-2.6-1.2-2.6-2.6v-2.6h52.1V411.9z M324.9,404.1h-52.1v-59.9c0-1.4,1.2-2.6,2.6-2.6h46.9c1.4,0,2.6,1.2,2.6,2.6V404.1z
				 M363.9,409.3c3.3,0,6.3,2.1,7.4,5.2h-41.7c0.3-0.8,0.5-1.7,0.5-2.6v-2.6H363.9z M330.1,404.1v-15.6h5.2v15.6H330.1z
				 M340.5,404.1v-15.6h10.4v15.6H340.5z M387.4,383.3h-57.3v-15.6h57.3V383.3z M387.4,359.8v2.6h-57.3v-18.2c0-1.2-0.3-2.5-0.9-3.5
				c0,0,0.1,0,0.1-0.1l25.8-25.8c1-1,1-2.7-0.1-3.7c-1-1-2.6-1-3.6,0l-25.8,25.8c-0.1,0.1-0.1,0.1-0.1,0.2c-1-0.5-2.1-0.7-3.2-0.7
				h-39.1v-39.1c0-4.3,3.5-7.8,7.8-7.8h109.4c4.3,0,7.8,3.5,7.8,7.8V352h-13C390.9,352,387.4,355.5,387.4,359.8z M418.7,411.9
				c0,1.4-1.2,2.6-2.6,2.6h-20.8c-1.4,0-2.6-1.2-2.6-2.6v-2.6h26.1V411.9z M418.7,404.1h-26.1v-44.3c0-1.4,1.2-2.6,2.6-2.6h20.8
				c1.4,0,2.6,1.2,2.6,2.6V404.1z"/>
		</g>
	</g>
	<g>
		<g>
			<path class="st0" d="M298.7,368.1c-1-1-2.7-1-3.7,0l-11.1,11.1c-1,1-1.1,2.6-0.1,3.7c1,1,2.6,1.1,3.7,0.1c0,0,0,0,0.1-0.1
				l11.1-11.1C299.1,371,298.2,369.4,298.7,368.1z"/>
		</g>
	</g>
	<g>
		<g>
			<path class="st0" d="M314.2,368.1c-1-1-2.6-1-3.6,0l-11.1,11.1c-1,1-1.1,2.6-0.1,3.7c1,1,2.6,1.1,3.7,0.1c0,0,0,0,0.1-0.1
				l11.1-11.1C315.3,370.7,315.3,369.1,314.2,368.1z"/>
		</g>
	</g>
	<g>
		<g>
			<path class="st0" d="M370.9,311.1c-1-1-2.6-1-3.6,0l-25.8,25.8c-1,1-1.1,2.6-0.1,3.7c1,1,2.6,1.1,3.7,0.1c0,0,0,0,0.1-0.1
				l25.8-25.8C372,313.7,372,312.1,370.9,311.1z"/>
		</g>
	</g>
	<g>
		<g>
			<path class="st0" d="M411.1,375.1c-1-1-2.6-1-3.6,0l-7.4,7.4c-1,1-1.1,2.6-0.1,3.7c1,1,2.6,1.1,3.7,0.1c0,0,0,0,0.1-0.1l7.4-7.4
				C412.2,377.8,412.1,376.1,411.1,375.1z"/>
		</g>
	</g>
	<g>
		<g>
			<path class="st0" d="M345.8,372.8L345.8,372.8c-1.5,0-2.6,1.2-2.6,2.6s1.2,2.6,2.6,2.6c1.4,0,2.6-1.2,2.6-2.6
				S347.2,372.8,345.8,372.8z"/>
		</g>
	</g>
	<g>
		<g>
			<path class="st0" d="M350.9,294.7h-10.4c-1.4,0-2.6,1.2-2.6,2.6c0,1.4,1.2,2.6,2.6,2.6h10.4c1.4,0,2.6-1.2,2.6-2.6
				C353.5,295.8,352.4,294.7,350.9,294.7z"/>
		</g>
	</g>
</g>
<path class="st0" d="M169.9,331.6c-1.4-2.1-3.5-3.6-6-4.1c1.6-3,1.5-6.8-0.5-9.9c-1.4-2.2-3.6-3.6-6-4.1c0.4-0.8,0.7-1.7,0.9-2.6
	c0.5-2.5,0-5.1-1.4-7.3c-1.4-2.1-3.5-3.6-6-4.1c1.6-3,1.5-6.8-0.5-9.9c-3-4.5-9-5.7-13.4-2.7l-9.6,6.4c-5.1-2.6-10.6-4.5-16.3-5.5
	c-1.8-2.7-3.9-5.3-6.2-7.5l-4-3.9c-2.9-2.8-7.5-3.3-10.9-1c-4,2.7-5.1,8.1-2.5,12.1c0.1,0.2,0.2,0.3,0.3,0.5
	c-13.1,2.6-25,9.6-33.8,19.8c-9.6,11-14.9,25.2-14.9,39.8c0,2.8,0.2,5.6,0.6,8.4c2.9,21.3,17.1,39.6,37,47.8
	c7.4,3.1,15.2,4.6,23.2,4.6c12.8,0,25-3.9,35.3-11.3c10.1-7.2,17.7-17.2,21.9-28.9c0.4-1.1-0.2-2.3-1.3-2.7
	c-1.1-0.4-2.3,0.2-2.7,1.3c-3.9,10.8-11,20.1-20.4,26.9c-9.6,6.9-21,10.5-32.9,10.5c-6.1,0-12.1-1-17.9-2.9l17-11.3c0,0,0,0,0,0
	c0,0,0,0,0,0l14.1-9.4h0c1.3-0.8,2.1-2.1,2.4-3.6c0.3-1.5,0-3-0.8-4.3l-0.2-0.3l2.7-1.8c2-1.3,4.3-1.8,6.6-1.4
	c3.4,0.5,6.8-0.2,9.6-2.1l22.8-15.1c-0.2,2-0.4,3.9-0.8,5.9c-0.2,1.1,0.5,2.2,1.7,2.4c0.1,0,0.3,0,0.4,0c1,0,1.9-0.7,2.1-1.7
	c0.6-3.1,0.9-6.3,1-9.5l6.4-4.2c2.2-1.4,3.6-3.6,4.1-6.2C171.8,336.4,171.3,333.8,169.9,331.6z M123.4,296.1l-6.4,4.2l-1.3-3.4
	c-0.5-1.4-1.1-2.8-1.8-4.2C117.2,293.6,120.3,294.7,123.4,296.1z M57.2,310.6c8.5-9.8,20-16.4,32.7-18.6c2,4.9,2.5,10.4,1.3,15.6
	l-5.1,22c-0.8-0.9-1.8-1.4-3-1.7c-1.5-0.3-3,0-4.3,0.8l-14.4,9.6c0,0,0,0,0,0c0,0,0,0,0,0l-20.8,13.8c-0.1-1.5-0.2-2.9-0.2-4.4
	C43.3,334,48.3,320.9,57.2,310.6z M111.6,376.3c-0.1,0.4-0.3,0.7-0.7,1h0l-12.4,8.2l-23-34.4c-0.6-1-1.9-1.2-2.9-0.6
	c-1,0.6-1.2,1.9-0.6,2.9l23,34.3l-17.7,11.7c-17.6-7.7-30.2-24-33.2-42.9l20.8-13.8l2.4,3.6c0.4,0.6,1.1,0.9,1.7,0.9
	c0.4,0,0.8-0.1,1.2-0.4c1-0.6,1.2-1.9,0.6-2.9l-2.4-3.6l12.7-8.4c0.3-0.2,0.7-0.3,1.1-0.2c0.4,0.1,0.7,0.3,1,0.7l28.2,42.5
	C111.6,375.5,111.7,375.9,111.6,376.3z M167.2,338.1c-0.3,1.4-1.1,2.7-2.4,3.5l-7.3,4.9c0,0,0,0,0,0l-26.2,17.3
	c-2,1.3-4.3,1.8-6.6,1.4c-3.4-0.5-6.8,0.2-9.6,2.1l-2.7,1.8l-23.1-34.8l6-25.8c1.5-6.6,0.7-13.6-2.2-19.7c0-0.1-0.1-0.1-0.1-0.2
	c-0.6-1.2-1.2-2.3-1.9-3.3c-1.4-2.1-0.8-4.9,1.3-6.3c1.8-1.2,4.2-1,5.7,0.5l4,3.9c4.3,4.2,7.7,9.4,9.8,15l2.2,5.9c0,0,0,0,0,0
	c0,0,0,0,0,0c0,0,0,0.1,0,0.1c0,0.1,0.1,0.2,0.1,0.3c0.6,1,1.9,1.2,2.9,0.6l22.3-14.8c2.5-1.7,6-1,7.6,1.6s1,6-1.6,7.6l-1.9,1.3
	c0,0,0,0,0,0l-4.3,2.9c0,0,0,0,0,0c0,0,0,0-0.1,0.1c-0.9,0.7-1.1,1.9-0.5,2.8c0.6,1,1.9,1.2,2.9,0.6l4.3-2.9
	c1.2-0.8,2.7-1.1,4.1-0.8c1.4,0.3,2.7,1.1,3.5,2.4c0.8,1.2,1.1,2.7,0.8,4.1c-0.3,1.4-1.1,2.7-2.4,3.5l-6.3,4.1
	c-1,0.6-1.2,1.9-0.6,2.9c0.4,0.6,1.1,0.9,1.7,0.9c0.4,0,0.8-0.1,1.2-0.3l1-0.6l3.3-2.2c2.5-1.7,6-1,7.6,1.6c1.7,2.5,1,6-1.6,7.6
	l-3.1,2.1c0,0,0,0,0,0l-3.1,2c-1,0.6-1.2,1.9-0.6,2.9c0.4,0.6,1.1,0.9,1.7,0.9c0.4,0,0.8-0.1,1.2-0.3l1-0.6c0,0,0,0,0,0l3.3-2.2
	c1.2-0.8,2.7-1.1,4.1-0.8c1.4,0.3,2.7,1.1,3.5,2.4C167.2,335.2,167.5,336.7,167.2,338.1z"/>
</svg>
