<?xml version="1.0" encoding="utf-8"?>
<!-- Generator: Adobe Illustrator 23.0.6, SVG Export Plug-In . SVG Version: 6.00 Build 0)  -->
<svg version="1.1" id="Camada_1" xmlns="http://www.w3.org/2000/svg" xmlns:xlink="http://www.w3.org/1999/xlink" x="0px" y="0px"
	 viewBox="0 0 441.1 512" style="enable-background:new 0 0 441.1 512;" xml:space="preserve">
<style type="text/css">
	.st0{fill:#FFFFFF;}
</style>
<path class="st0" d="M270.6,179c5.5,0,10-4.5,10-10s-4.5-10-10-10c-5.5,0-10,4.5-10,10S265,179,270.6,179z"/>
<path class="st0" d="M170.6,179c5.5,0,10-4.5,10-10s-4.5-10-10-10c-5.5,0-10,4.5-10,10S165,179,170.6,179z"/>
<path class="st0" d="M193.8,247.7c8.4,4,17.4,6,26.7,6c9.1,0,18-1.9,26.2-5.7c5-2.3,7.2-8.2,4.9-13.3c-2.3-5-8.2-7.2-13.3-4.9
	c-5.6,2.6-11.6,3.9-17.9,3.9c-6.4,0-12.5-1.4-18.2-4.1c-5-2.4-11-0.2-13.3,4.8C186.7,239.4,188.8,245.4,193.8,247.7z"/>
<path class="st0" d="M441.1,404.8c0-55-62.6-98.1-116.3-100.2L297.4,280c33.4-24.3,53.6-63.4,53.6-105v-66C351,48.3,301.5-1,240.6-1
	h-40C139.9-1,91,48.2,91,109v66c0,41.5,20,80.5,52.9,104.8l-27.6,24.8C62.7,306.7,0,349.7,0,404.8V501c0,5.5,4.5,10,10,10h421.1
	c5.5,0,10-4.5,10-10V404.8z M198.4,445h44.2l10.5,46h-65.5L198.4,445z M243.5,425h-45.7l-7.7-23.9l30.5-15.2l31.1,15.6L243.5,425z
	 M220.5,355.8l-34.8-55.6c11.3,3.1,23,4.8,34.9,4.8c11.7,0,23.4-1.6,34.6-4.7L220.5,355.8z M234.9,370.7l48-76.8l25.9,23.3l-32.9,74
	L234.9,370.7z M200.6,19h40c49.8,0,90.4,40.4,90.4,90v8.3l-18.8-27c-1.7-2.4-4.4-4-7.4-4.3c-3-0.2-5.9,0.8-8,3
	C276.5,109.7,253,119,220.6,119c-32.4,0-56-9.3-76.3-30.1c-2.1-2.1-5-3.2-8-3c-3,0.3-5.7,1.8-7.4,4.3L111,116.4V109
	C111,59.4,151.2,19,200.6,19z M111,175v-23.1l27.8-40.7c22.2,18.9,48.5,27.8,81.8,27.8c33.3,0,59.6-8.9,81.8-27.9l28.6,41.2V175
	c0,59.9-48.9,110-110.4,110C159.4,285,111,235,111,175z M158.2,293.8l48,76.8l-41,20.5l-32.9-74L158.2,293.8z M20,404.8
	c0-41.2,50.1-76.8,93.8-80l37.4,84.1c1.1,2.5,3.2,4.4,5.8,5.3s5.4,0.8,7.8-0.5l7.1-3.6l8.1,25.3l-13,55.6H20V404.8z M421.1,491
	H273.6L261,435.6l8.7-25.1l6.5,3.3c2.5,1.2,5.3,1.4,7.8,0.5c2.6-0.9,4.7-2.9,5.8-5.3l37.4-84.1c43.8,3.2,93.8,38.8,93.8,80V491z"/>
<path class="st0" d="M350.6,445h-40c-5.5,0-10,4.5-10,10s4.5,10,10,10h40c5.5,0,10-4.5,10-10S356.1,445,350.6,445z"/>
<path class="st0" d="M390,445c5.5,0,10,4.5,10,10s-4.5,10-10,10s-10-4.5-10-10S384.5,445,390,445z"/>
</svg>
