<?xml version="1.0" encoding="utf-8"?>
<!-- Generator: Adobe Illustrator 23.0.6, SVG Export Plug-In . SVG Version: 6.00 Build 0)  -->
<svg version="1.1" id="Camada_1" xmlns="http://www.w3.org/2000/svg" xmlns:xlink="http://www.w3.org/1999/xlink" x="0px" y="0px"
	 viewBox="0 0 470 470" style="enable-background:new 0 0 470 470;" xml:space="preserve">
<style type="text/css">
	.st0{fill:#FFFFFF;}
</style>
<g>
	<path class="st0" d="M311.2,353.8H250c-4.1,0-7.5,3.4-7.5,7.5v61.2c0,4.1,3.4,7.5,7.5,7.5h61.2c4.1,0,7.5-3.4,7.5-7.5v-61.2
		C318.8,357.1,315.4,353.8,311.2,353.8z M303.8,415h-46.2v-46.2h46.2V415z"/>
	<path class="st0" d="M220,353.8h-61.2c-4.1,0-7.5,3.4-7.5,7.5v61.2c0,4.1,3.4,7.5,7.5,7.5H220c4.1,0,7.5-3.4,7.5-7.5v-61.2
		C227.5,357.1,224.1,353.8,220,353.8z M212.5,415h-46.2v-46.2h46.2V415z"/>
	<path class="st0" d="M220,262.5h-61.2c-4.1,0-7.5,3.4-7.5,7.5v61.2c0,4.1,3.4,7.5,7.5,7.5H220c4.1,0,7.5-3.4,7.5-7.5V270
		C227.5,265.9,224.1,262.5,220,262.5z M212.5,323.8h-46.2v-46.2h46.2V323.8z"/>
	<path class="st0" d="M128.8,353.8H67.5c-4.1,0-7.5,3.4-7.5,7.5v61.2c0,4.1,3.4,7.5,7.5,7.5h61.2c4.1,0,7.5-3.4,7.5-7.5v-61.2
		C136.2,357.1,132.9,353.8,128.8,353.8z M121.2,415H75v-46.2h46.2V415z"/>
	<path class="st0" d="M402.5,202.5h-61.2c-4.1,0-7.5,3.4-7.5,7.5v30c0,4.1,3.4,7.5,7.5,7.5h61.2c4.1,0,7.5-3.4,7.5-7.5v-30
		C410,205.9,406.6,202.5,402.5,202.5z M395,232.5h-46.2v-15H395V232.5z"/>
	<path class="st0" d="M311.2,262.5H250c-4.1,0-7.5,3.4-7.5,7.5v61.2c0,4.1,3.4,7.5,7.5,7.5h61.2c4.1,0,7.5-3.4,7.5-7.5V270
		C318.8,265.9,315.4,262.5,311.2,262.5z M303.8,323.8h-46.2v-46.2h46.2V323.8z"/>
	<path class="st0" d="M128.8,262.5H67.5c-4.1,0-7.5,3.4-7.5,7.5v61.2c0,4.1,3.4,7.5,7.5,7.5h61.2c4.1,0,7.5-3.4,7.5-7.5V270
		C136.2,265.9,132.9,262.5,128.8,262.5z M121.2,323.8H75v-46.2h46.2V323.8z"/>
	<path class="st0" d="M311.2,202.5H250c-4.1,0-7.5,3.4-7.5,7.5v30c0,4.1,3.4,7.5,7.5,7.5h61.2c4.1,0,7.5-3.4,7.5-7.5v-30
		C318.8,205.9,315.4,202.5,311.2,202.5z M303.8,232.5h-46.2v-15h46.2V232.5z"/>
	<path class="st0" d="M402.5,0h-335C46.8,0,30,16.8,30,37.5v395c0,20.7,16.8,37.5,37.5,37.5h335c20.7,0,37.5-16.8,37.5-37.5v-395
		C440,16.8,423.2,0,402.5,0z M425,432.5c0,12.4-10.1,22.5-22.5,22.5h-335C55.1,455,45,444.9,45,432.5v-395C45,25.1,55.1,15,67.5,15
		h335c12.4,0,22.5,10.1,22.5,22.5V432.5z"/>
	<path class="st0" d="M402.5,262.5h-61.2c-4.1,0-7.5,3.4-7.5,7.5v152.5c0,4.1,3.4,7.5,7.5,7.5h61.2c4.1,0,7.5-3.4,7.5-7.5V330
		c0-4.1-3.4-7.5-7.5-7.5s-7.5,3.4-7.5,7.5v85h-46.2V277.5H395V300c0,4.1,3.4,7.5,7.5,7.5s7.5-3.4,7.5-7.5v-30
		C410,265.9,406.6,262.5,402.5,262.5z"/>
	<path class="st0" d="M402.5,40h-335c-4.1,0-7.5,3.4-7.5,7.5V170c0,4.1,3.4,7.5,7.5,7.5h61.2c4.1,0,7.5-3.4,7.5-7.5
		s-3.4-7.5-7.5-7.5H75V55h320v107.5H158.8c-4.1,0-7.5,3.4-7.5,7.5s3.4,7.5,7.5,7.5h243.8c4.1,0,7.5-3.4,7.5-7.5V47.5
		C410,43.4,406.6,40,402.5,40z"/>
	<path class="st0" d="M342.5,85h30c4.1,0,7.5-3.4,7.5-7.5s-3.4-7.5-7.5-7.5h-30c-4.1,0-7.5,3.4-7.5,7.5S338.4,85,342.5,85z"/>
	<path class="st0" d="M342.5,145h30c4.1,0,7.5-3.4,7.5-7.5s-3.4-7.5-7.5-7.5h-30c-4.1,0-7.5,3.4-7.5,7.5S338.4,145,342.5,145z"/>
	<path class="st0" d="M335,117.5c0,4.1,3.4,7.5,7.5,7.5s7.5-3.4,7.5-7.5v-20c0-4.1-3.4-7.5-7.5-7.5s-7.5,3.4-7.5,7.5V117.5z"/>
</g>
</svg>
